<?xml version="1.0" encoding="UTF-8"?>
<svg id="Layer_1" data-name="Layer 1" xmlns="http://www.w3.org/2000/svg" viewBox="0 0 1920 101.69">
  <defs>
    <style>
      .cls-1 {
        fill: #facec8;
      }
    </style>
  </defs>
  <path class="cls-1" d="M65.08,80.21c-4.6,4.1-10.41,6.15-17.41,6.15-5.62,0-10.62-1.45-14.99-4.35-4.37-2.9-7.8-7.09-10.29-12.57-2.49-5.48-3.73-11.91-3.73-19.27s1.24-13.27,3.73-18.52c2.49-5.25,5.97-9.28,10.43-12.09,4.46-2.81,9.55-4.22,15.26-4.22,6.91,0,12.46,1.92,16.65,5.73,4.19,3.82,6.75,8.96,7.67,15.4h18.79c-.83-7.55-3.15-14.07-6.98-19.55-3.82-5.48-8.84-9.67-15.06-12.57C62.93,1.45,55.91,0,48.08,0,38.96,0,30.74,2.03,23.42,6.08c-7.33,4.05-13.06,9.88-17.2,17.48C2.07,31.16,0,40.02,0,50.16c0,10.77,1.91,20.03,5.73,27.77,3.82,7.74,9.28,13.63,16.37,17.69,7.09,4.05,15.43,6.08,25.01,6.08,8.48,0,15.94-1.54,22.39-4.63,6.44-3.09,11.54-7.46,15.26-13.13,3.73-5.66,6.01-12.23,6.84-19.69h-18.1c-1.01,6.54-3.82,11.86-8.43,15.96Z"/>
  <path class="cls-1" d="M168.91,6.36C161.68,2.13,153.55,0,144.52,0s-17.13,2.1-24.32,6.29c-7.19,4.19-12.83,10.13-16.92,17.82-4.1,7.69-6.15,16.6-6.15,26.73s2.05,19.72,6.15,27.36c4.09,7.65,9.72,13.48,16.86,17.48,7.13,4.01,15.26,6.01,24.38,6.01s17.29-2,24.53-6.01c7.23-4,12.92-9.86,17.06-17.55,4.14-7.69,6.22-16.79,6.22-27.29s-2.1-18.9-6.29-26.59c-4.19-7.69-9.91-13.66-17.14-17.9ZM170.02,70.05c-2.45,5.35-5.88,9.4-10.29,12.16-4.42,2.77-9.49,4.14-15.2,4.14s-10.73-1.4-15.06-4.21c-4.33-2.81-7.7-6.89-10.09-12.23-2.4-5.34-3.59-11.7-3.59-19.07s1.19-13.47,3.59-18.86c2.39-5.39,5.75-9.51,10.09-12.37,4.33-2.85,9.34-4.28,15.06-4.28s10.78,1.45,15.2,4.36c4.42,2.9,7.85,7.04,10.29,12.43,2.44,5.39,3.66,11.63,3.66,18.72,0,7.47-1.22,13.86-3.66,19.21Z"/>
  <polygon class="cls-1" points="204.77 99.21 222.87 99.21 222.87 58.59 269.16 58.59 269.16 43.25 222.87 43.25 222.87 17.83 271.78 17.83 271.78 2.49 204.77 2.49 204.77 99.21"/>
  <polygon class="cls-1" points="283.11 99.21 301.21 99.21 301.21 58.59 347.5 58.59 347.5 43.25 301.21 43.25 301.21 17.83 350.13 17.83 350.13 2.49 283.11 2.49 283.11 99.21"/>
  <polygon class="cls-1" points="379.55 56.93 426.67 56.93 426.67 41.45 379.55 41.45 379.55 17.83 428.74 17.83 428.74 2.49 361.45 2.49 361.45 99.21 430.82 99.21 430.82 83.87 379.55 83.87 379.55 56.93"/>
  <polygon class="cls-1" points="461.9 56.93 509.01 56.93 509.01 41.45 461.9 41.45 461.9 17.83 511.09 17.83 511.09 2.49 443.8 2.49 443.8 99.21 513.16 99.21 513.16 83.87 461.9 83.87 461.9 56.93"/>
  <polygon class="cls-1" points="537.61 17.83 569.95 17.83 569.95 99.21 588.05 99.21 588.05 17.83 620.24 17.83 620.24 2.49 537.61 2.49 537.61 17.83"/>
  <polygon class="cls-1" points="691.26 42.01 646.63 42.01 646.63 2.49 628.53 2.49 628.53 99.21 646.63 99.21 646.63 57.34 691.26 57.34 691.26 99.21 709.36 99.21 709.36 2.49 691.26 2.49 691.26 42.01"/>
  <path class="cls-1" d="M755.65,2.49l-39.79,96.72h19.35l9.74-26.39h41.22l9.69,26.39h20.31L776.37,2.49h-20.72ZM750.6,57.48l11.12-30.12,1.38-3.87c.46-1.19.92-2.4,1.38-3.59.46-1.19.87-2.44,1.24-3.73,1.11,3.5,1.93,6.08,2.49,7.74.46,1.11.88,2.26,1.25,3.45l11.06,30.12h-29.93Z"/>
  <polygon class="cls-1" points="802.35 17.83 834.68 17.83 834.68 99.21 852.78 99.21 852.78 17.83 884.97 17.83 884.97 2.49 802.35 2.49 802.35 17.83"/>
  <polygon class="cls-1" points="914.4 99.21 932.5 99.21 932.5 58.59 978.79 58.59 978.79 43.25 932.5 43.25 932.5 17.83 981.42 17.83 981.42 2.49 914.4 2.49 914.4 99.21"/>
  <path class="cls-1" d="M1052.3,59.56c0,8.84-1.8,15.52-5.39,20.03-3.59,4.51-8.84,6.77-15.75,6.77-4.6,0-8.47-.98-11.6-2.97-3.13-1.98-5.5-4.95-7.12-8.91-1.61-3.96-2.42-8.93-2.42-14.92V2.49h-18.24v59.83c0,8.29,1.57,15.39,4.7,21.28,3.13,5.9,7.65,10.38,13.54,13.47,5.9,3.09,12.94,4.63,21.14,4.63,12.35,0,21.97-3.43,28.88-10.29,6.91-6.86,10.36-16.55,10.36-29.08V2.49h-18.1v57.07Z"/>
  <polygon class="cls-1" points="1105.35 56.93 1152.47 56.93 1152.47 41.45 1105.35 41.45 1105.35 17.83 1154.54 17.83 1154.54 2.49 1087.25 2.49 1087.25 99.21 1156.62 99.21 1156.62 83.87 1105.35 83.87 1105.35 56.93"/>
  <polygon class="cls-1" points="1187.7 2.49 1169.6 2.49 1169.6 99.21 1236.34 99.21 1236.34 83.87 1187.7 83.87 1187.7 2.49"/>
  <path class="cls-1" d="M1289.95,42.84l-16.3-3.18c-5.53-1.11-9.63-2.51-12.3-4.22-2.68-1.7-4.01-4.31-4.01-7.8,0-2.58.8-4.81,2.42-6.7,1.61-1.89,3.85-3.32,6.7-4.28,2.85-.97,6.08-1.45,9.67-1.45,4.51,0,8.32.74,11.4,2.21,3.08,1.47,5.39,3.45,6.9,5.94,1.52,2.49,2.37,5.3,2.56,8.43h18.79c-.37-6.36-2.09-11.9-5.18-16.65-3.09-4.75-7.48-8.45-13.2-11.13C1291.69,1.34,1284.88,0,1276.96,0,1269.77,0,1263.3,1.25,1257.55,3.73c-5.76,2.49-10.25,5.94-13.47,10.36-3.23,4.42-4.84,9.45-4.84,15.06,0,7.37,2.49,13.38,7.46,18.03,4.98,4.66,11.51,7.76,19.62,9.33l16.44,3.18c5.43,1.02,9.44,2.6,12.02,4.77,2.57,2.16,3.87,5.04,3.87,8.64,0,4.42-1.78,7.74-5.32,9.95-3.55,2.21-8.22,3.31-14.03,3.31-4.33,0-8.31-.78-11.95-2.34-3.64-1.57-6.61-3.87-8.92-6.91-2.3-3.04-3.59-6.72-3.87-11.05h-18.79c.55,7.19,2.56,13.47,6.01,18.86,3.45,5.39,8.31,9.54,14.58,12.44,6.26,2.9,13.63,4.35,22.11,4.35s15.04-1.33,20.8-4c5.75-2.67,10.13-6.36,13.12-11.05,3-4.7,4.49-10.09,4.49-16.17,0-7.65-2.46-13.77-7.39-18.37-4.93-4.6-11.45-7.69-19.55-9.26Z"/>
  <path class="cls-1" d="M1415.13,80.21c-4.6,4.1-10.41,6.15-17.41,6.15-5.62,0-10.62-1.45-14.99-4.35-4.37-2.9-7.8-7.09-10.29-12.57-2.49-5.48-3.73-11.91-3.73-19.27s1.24-13.27,3.73-18.52c2.49-5.25,5.97-9.28,10.43-12.09,4.46-2.81,9.55-4.22,15.26-4.22,6.91,0,12.46,1.92,16.65,5.73,4.19,3.82,6.75,8.96,7.67,15.4h18.79c-.83-7.55-3.15-14.07-6.98-19.55-3.82-5.48-8.84-9.67-15.06-12.57C1412.99,1.45,1405.96,0,1398.13,0,1389.01,0,1380.79,2.03,1373.47,6.08c-7.33,4.05-13.06,9.88-17.2,17.48-4.14,7.6-6.22,16.46-6.22,26.6,0,10.77,1.91,20.03,5.73,27.77,3.82,7.74,9.28,13.63,16.37,17.69,7.09,4.05,15.43,6.08,25.01,6.08,8.48,0,15.94-1.54,22.39-4.63,6.44-3.09,11.54-7.46,15.26-13.13,3.73-5.66,6.01-12.23,6.84-19.69h-18.1c-1.01,6.54-3.82,11.86-8.43,15.96Z"/>
  <polygon class="cls-1" points="1515.3 42.01 1470.68 42.01 1470.68 2.49 1452.57 2.49 1452.57 99.21 1470.68 99.21 1470.68 57.34 1515.3 57.34 1515.3 99.21 1533.4 99.21 1533.4 2.49 1515.3 2.49 1515.3 42.01"/>
  <path class="cls-1" d="M1579.69,2.49l-39.79,96.72h19.35l9.74-26.39h41.22l9.69,26.39h20.31l-39.79-96.72h-20.72ZM1574.65,57.48l11.12-30.12,1.38-3.87c.46-1.19.92-2.4,1.38-3.59.46-1.19.87-2.44,1.24-3.73,1.11,3.5,1.93,6.08,2.49,7.74.46,1.11.88,2.26,1.25,3.45l11.06,30.12h-29.93Z"/>
  <path class="cls-1" d="M1715.09,60.8c0,5.99.19,10.82.56,14.51l-41.73-72.81h-27.22v96.72h18.1V33.86c0-5.34-.19-9.86-.55-13.54l45.18,78.9h23.76V2.49h-18.1v58.31Z"/>
  <path class="cls-1" d="M1793.43,63.01h26.26v.69c0,4.51-1.13,8.48-3.38,11.89-2.26,3.41-5.32,6.06-9.19,7.94s-8.2,2.83-12.99,2.83c-5.9,0-11.1-1.42-15.61-4.28s-8.01-6.98-10.5-12.37c-2.49-5.39-3.73-11.68-3.73-18.86s1.26-13.47,3.79-18.86c2.54-5.39,6.11-9.51,10.71-12.37,4.6-2.85,9.86-4.28,15.75-4.28,6.26,0,11.44,1.61,15.55,4.84,4.09,3.22,6.47,7.32,7.11,12.3h18.65c-.65-6.26-2.74-11.86-6.29-16.79-3.55-4.93-8.34-8.78-14.37-11.54C1809.16,1.38,1802.19,0,1794.27,0,1784.68,0,1776.21,2.17,1768.84,6.5c-7.37,4.33-13.08,10.34-17.14,18.03-4.05,7.69-6.08,16.46-6.08,26.32s1.89,19.16,5.67,26.81c3.77,7.65,9.12,13.57,16.02,17.75,6.91,4.19,14.88,6.29,23.91,6.29,7.19,0,13.29-1.38,18.31-4.14,5.02-2.76,8.73-6.45,11.13-11.05-.37,1.57-.62,3.15-.76,4.77-.13,1.61-.2,3.24-.2,4.9v3.04h16.58v-51.54h-42.84v15.34Z"/>
  <polygon class="cls-1" points="1868.74 83.87 1868.74 56.93 1915.85 56.93 1915.85 41.45 1868.74 41.45 1868.74 17.83 1917.93 17.83 1917.93 2.49 1850.63 2.49 1850.63 99.21 1920 99.21 1920 83.87 1868.74 83.87"/>
</svg>